<svg width="27" height="27" viewBox="0 0 27 27" fill="none" xmlns="http://www.w3.org/2000/svg">
<g clip-path="url(#clip0_1_1109)">
<path d="M18.8486 1.21136H8.75141L1.58569 8.26851V18.4742L8.75141 25.5314H18.8486L26.0143 18.4742V8.26851L18.8486 1.21136Z" stroke="#B90000" stroke-width="1.5" stroke-miterlimit="10" stroke-linecap="round" stroke-linejoin="round"/>
<path d="M13.7457 20.4285C14.6451 20.4285 15.3743 19.6994 15.3743 18.7999C15.3743 17.9005 14.6451 17.1713 13.7457 17.1713C12.8462 17.1713 12.1171 17.9005 12.1171 18.7999C12.1171 19.6994 12.8462 20.4285 13.7457 20.4285Z" stroke="#B90000" stroke-width="1.5" stroke-miterlimit="10" stroke-linecap="round" stroke-linejoin="round"/>
<path d="M15.9171 7.94279C15.9171 9.13708 13.7457 13.9142 13.7457 13.9142C13.7457 13.9142 11.5742 9.13708 11.5742 7.94279C11.5742 6.74851 12.5514 5.77136 13.7457 5.77136C14.94 5.77136 15.9171 6.74851 15.9171 7.94279Z" stroke="#B90000" stroke-width="1.5" stroke-miterlimit="10" stroke-linecap="round" stroke-linejoin="round"/>
</g>
<defs>
<clipPath id="clip0_1_1109">
<rect width="26.0571" height="26.0571" fill="white" transform="translate(0.771423 0.342834)"/>
</clipPath>
</defs>
</svg>
