<svg width="49" height="49" viewBox="0 0 49 49" fill="none" xmlns="http://www.w3.org/2000/svg">
<g clip-path="url(#clip0_1042_2341)">
<path d="M19.0358 14.6512C19.3183 15.316 19.729 15.9185 20.2444 16.4246C20.7597 16.9306 21.3698 17.3301 22.0395 17.6004C22.7093 17.8707 23.4258 18.0064 24.1481 17.9998C24.8703 17.9932 25.5842 17.8443 26.2489 17.5618C26.9136 17.2793 27.5162 16.8687 28.0222 16.3533C28.5282 15.8379 28.9278 15.2279 29.1981 14.5581C29.4683 13.8883 29.604 13.1718 29.5974 12.4496C29.5908 11.7274 29.442 11.0135 29.1595 10.3488C28.877 9.68404 28.4663 9.08147 27.9509 8.57544C27.4356 8.06942 26.8256 7.66987 26.1558 7.39959C25.486 7.12932 24.7695 6.99361 24.0473 7.00023C23.325 7.00685 22.6112 7.15566 21.9464 7.43816C21.2817 7.72066 20.6791 8.13133 20.1731 8.64671C19.6671 9.16209 19.2675 9.77209 18.9972 10.4419C18.727 11.1117 18.5913 11.8282 18.5979 12.5504C18.6045 13.2726 18.7533 13.9865 19.0358 14.6512Z" fill="#C2D0FF" stroke="#C2D0FF" stroke-width="1.5" stroke-linecap="round" stroke-linejoin="round"/>
<path d="M24.4785 18L24.4763 49.7594" stroke="#C2D0FF" stroke-width="1.5" stroke-linecap="round" stroke-linejoin="round"/>
</g>
<defs>
<clipPath id="clip0_1042_2341">
<rect width="34.5902" height="34.5902" fill="white" transform="translate(25.2461) rotate(46.875)"/>
</clipPath>
</defs>
</svg>
