<svg width="17" height="27" viewBox="0 0 17 27" fill="none" xmlns="http://www.w3.org/2000/svg">
<path fill-rule="evenodd" clip-rule="evenodd" d="M4.06139 1.50684C6.57399 -0.151743 9.66239 -0.122753 12.1514 1.58278C14.616 3.32304 16.1139 6.42891 16.0999 9.76995C16.0425 13.0891 14.4364 16.209 12.4287 18.6209C11.2699 20.0193 9.97357 21.2558 8.56622 22.3052C8.42128 22.4004 8.26251 22.4641 8.09776 22.4932C7.93919 22.4856 7.78476 22.4323 7.64841 22.3384C5.49982 20.7616 3.61486 18.7489 2.08419 16.3971C0.803382 14.434 0.0757115 12.0623 1.31337e-06 9.60399C-0.0016614 6.25654 1.54879 3.16542 4.06139 1.50684ZM5.51373 10.9895C5.93638 12.1733 6.93401 12.9454 8.0408 12.9454C8.76588 12.9513 9.46288 12.6214 9.9765 12.0291C10.4901 11.4368 10.7777 10.6313 10.7751 9.79223C10.779 8.51143 10.1152 7.35424 9.09382 6.86099C8.07239 6.36774 6.89475 6.63572 6.11076 7.53981C5.32677 8.44389 5.09108 9.80575 5.51373 10.9895Z" fill="#1F41BB"/>
<ellipse opacity="0.4" cx="8.04935" cy="25.106" rx="5.75004" ry="1.30649" fill="#1F41BB"/>
</svg>
