<svg width="20" height="24" viewBox="0 0 20 24" fill="none" xmlns="http://www.w3.org/2000/svg">
<path d="M14.5 4.05005C14.1022 4.05005 13.7206 4.20808 13.4393 4.48939C13.158 4.77069 13 5.15222 13 5.55005V22.2001C12.9999 22.3339 12.9641 22.4652 12.8962 22.5805C12.8282 22.6958 12.7307 22.7908 12.6137 22.8557C12.4967 22.9205 12.3644 22.9529 12.2307 22.9495C12.0969 22.946 11.9665 22.9069 11.853 22.8361L7 19.8L2.147 22.833C2.0337 22.9037 1.90357 22.9429 1.77007 22.9465C1.63657 22.95 1.50453 22.9179 1.38761 22.8534C1.27068 22.7889 1.17311 22.6943 1.10497 22.5794C1.03683 22.4646 1.00059 22.3336 1 22.2001V5.55005C1 4.35657 1.47411 3.21198 2.31802 2.36807C3.16193 1.52415 4.30653 1.05005 5.5 1.05005H14.5C15.6935 1.05005 16.8381 1.52415 17.682 2.36807C18.5259 3.21198 19 4.35657 19 5.55005V9.30005C19 9.49896 18.921 9.68973 18.7803 9.83038C18.6397 9.97103 18.4489 10.05 18.25 10.05H13" stroke="black" stroke-width="1.5" stroke-linecap="round" stroke-linejoin="round"/>
</svg>
