<svg width="24" height="24" viewBox="0 0 24 24" fill="none" xmlns="http://www.w3.org/2000/svg">
<path d="M10.4203 11.4049V13.5785C10.4203 15.7267 13.7117 15.9542 13.7117 13.5785V9.30206C13.7117 7.9794 12.7472 6.53282 10.8486 6.79027C10.5892 6.82544 10.3415 6.92045 10.1251 7.06779C9.90869 7.21512 9.72951 7.41076 9.60168 7.63923L6.20133 13.5785C6.05292 13.8331 5.97469 14.1226 5.97464 14.4173V16.9789C5.9779 17.2431 5.91559 17.504 5.79329 17.7383L4.45581 20.4699C4.25853 20.8716 4.22762 21.335 4.36979 21.7594C4.51197 22.1838 4.81575 22.535 5.21523 22.7368C5.44996 22.8578 5.71056 22.92 5.97464 22.9181C6.29044 22.919 6.60016 22.8313 6.86864 22.6651C7.13711 22.4988 7.35358 22.2605 7.49346 21.9774L8.84227 19.2911C9.22488 18.5133 9.40795 17.6524 9.37499 16.7862L10.9052 17.2962C11.1158 17.3664 11.3104 17.4776 11.4778 17.6236C11.6451 17.7695 11.7818 17.9472 11.8799 18.1463L13.8068 21.9887C13.9467 22.2719 14.1631 22.5101 14.4316 22.6764C14.7001 22.8427 15.0098 22.9304 15.3256 22.9295C15.5897 22.9314 15.8503 22.8691 16.085 22.7481C16.4845 22.5463 16.7883 22.1951 16.9305 21.7707C17.0726 21.3463 17.0417 20.883 16.8444 20.4812L15.3256 17.4256" stroke="white" stroke-width="1.5" stroke-linecap="round" stroke-linejoin="round"/>
<path d="M14.0139 3.92301C14.0139 4.67941 14.3144 5.40483 14.8492 5.93968C15.3841 6.47454 16.1095 6.77501 16.8659 6.77501C17.6223 6.77501 18.3477 6.47454 18.8826 5.93968C19.4174 5.40483 19.7179 4.67941 19.7179 3.92301C19.7179 3.16662 19.4174 2.4412 18.8826 1.90635C18.3477 1.37149 17.6223 1.07101 16.8659 1.07101C16.1095 1.07101 15.3841 1.37149 14.8492 1.90635C14.3144 2.4412 14.0139 3.16662 14.0139 3.92301Z" stroke="white" stroke-width="1.5" stroke-linecap="round" stroke-linejoin="round"/>
</svg>
